<svg width="378" height="257" viewBox="0 0 378 257" fill="none" xmlns="http://www.w3.org/2000/svg">
<path d="M74.88 50.97C79.56 50.97 83.16 51.15 86.76 51.51V37.56C83.07 38.01 79.38 38.19 74.34 38.19H51.57V32.34C51.57 30.09 51.75 28.2 52.11 26.31H36.54C36.9 28.2 37.08 30.18 37.08 32.43V38.19H15.66C10.62 38.19 7.02 38.01 3.33 37.56V51.51C6.93 51.15 10.98 50.97 15.3 50.97H17.1C19.71 59.16 21.06 62.31 24.03 67.71C27.18 73.38 30.69 78.33 35.37 83.46C26.73 89.49 17.55 93.27 1.98 97.05C5.67 101.82 7.56 105.33 9.54 110.55C25.65 105.51 35.55 100.65 45.63 92.91C56.07 100.92 65.16 105.51 80.73 110.46C83.07 104.43 84.87 101.01 88.65 96.24C74.61 93.45 65.79 90.03 55.98 83.46C60.21 78.69 63.36 74.19 66.33 68.61C69.3 62.94 70.65 59.16 72.81 50.97H74.88ZM57.78 50.97C55.8 57.81 54.9 60.24 52.38 64.65C50.31 68.43 48.15 71.49 45.27 74.64C42.39 71.58 40.23 68.79 37.71 64.56C34.83 59.79 33.57 56.82 31.68 50.97H57.78ZM113.85 30.09C109.17 30.09 105.75 29.91 102.51 29.55V40.8C104.31 40.53 107.1 40.44 112.14 40.44H116.82C117.72 42.15 117.99 42.78 118.62 44.13H109.17C103.23 44.13 100.89 44.04 98.55 43.77V54.84C101.34 54.48 103.59 54.39 108.63 54.39H170.46C175.68 54.39 177.75 54.48 180.63 54.84V43.77C178.38 44.04 176.31 44.13 170.64 44.13H160.56C161.46 42.51 161.73 41.97 162.54 40.44H166.77C172.35 40.44 174.15 40.53 176.67 40.8V29.55C173.43 29.91 170.28 30.09 165.6 30.09H146.16C146.16 27.84 146.25 26.49 146.61 24.78H131.4C131.76 26.76 131.85 27.84 131.85 30.09H113.85ZM133.2 44.13C132.57 42.78 132.39 42.24 131.49 40.44H147.96C147.24 42.06 146.88 42.78 146.16 44.13H133.2ZM132.12 87.33V90.21H109.17C103.41 90.21 100.8 90.12 98.46 89.76V102C101.61 101.64 104.85 101.46 108.81 101.46H132.12V102.45C132.12 105.42 131.94 107.76 131.58 110.46H146.7C146.34 107.76 146.16 105.42 146.16 102.36V101.46H171C175.14 101.46 177.84 101.64 180.9 102V89.76C178.2 90.12 175.68 90.21 170.64 90.21H146.16V87.33H163.98C167.31 87.33 169.56 87.42 171.99 87.6C171.72 84.54 171.63 82.56 171.63 79.5V64.47C171.63 60.78 171.72 58.71 171.99 56.64C169.47 56.82 166.77 56.91 163.08 56.91H116.1C112.59 56.91 109.8 56.82 107.28 56.64C107.55 59.88 107.64 62.13 107.64 65.01V79.05C107.64 82.74 107.55 85.08 107.28 87.6C109.98 87.42 112.95 87.33 116.19 87.33H132.12ZM121.14 65.19H158.13V68.16H121.14V65.19ZM121.14 75.99H158.13V79.05H121.14V75.99ZM226.89 29.46C225.63 29.73 224.73 29.82 222.57 29.82H214.92C215.55 28.29 215.73 27.84 216.27 26.76L202.41 24.6C201.87 27.84 200.43 32.34 198.27 36.75C196.11 41.34 194.04 44.4 190.44 48.27C192.96 50.07 193.68 50.7 195.3 52.14C195.39 54.39 195.39 55.56 195.39 59.25C195.39 84.09 194.4 91.92 190.53 99.39C194.4 102.36 196.47 104.61 200.16 109.74C203.49 102.99 204.66 98.49 205.65 88.95H221.67V95.61C221.67 97.14 220.95 97.41 217.44 97.41C216 97.41 213.75 97.23 210.69 96.96C212.4 101.28 213.21 104.43 213.66 109.38C215.28 109.38 216.54 109.38 217.35 109.38C224.28 109.38 226.98 108.93 229.05 107.49C231.39 105.87 232.29 103.62 232.29 99.3V78.06C235.98 79.41 238.77 80.76 242.37 82.92C238.05 82.92 237.06 82.83 234.18 82.56V95.79C236.79 95.43 238.5 95.34 242.82 95.34H249.3V100.47C249.3 105.06 249.21 107.13 248.76 110.19H263.25C262.8 107.22 262.71 105.15 262.71 100.47V95.34H267.39C271.98 95.34 273.51 95.43 276.12 95.79V82.56C273.42 82.83 271.62 82.92 267.39 82.92H262.71V77.61H267.12C270.36 77.61 272.61 77.7 274.59 77.97V65.01C272.79 65.37 270.9 65.46 267.12 65.46H262.71C262.71 62.94 262.71 61.59 262.8 59.43H249.39C249.75 61.14 249.84 62.67 249.84 65.46H246.87C247.05 64.02 247.23 62.67 247.41 61.41L242.37 60.33C246.87 57.18 249.48 54.12 252.18 48.99C253.08 52.41 253.35 54.12 253.8 57.54C257.04 57.72 258.3 57.72 259.56 57.72C264.87 57.72 267.48 57.18 269.37 55.83C271.98 53.94 273.24 49.98 273.87 41.52C274.68 29.55 274.68 29.55 274.95 27.48C272.61 27.75 270.63 27.84 267.21 27.84H243.36C238.95 27.84 236.52 27.75 233.46 27.39V40.35C235.44 40.08 237.6 39.99 241.02 39.99H242.01C241.11 43.05 240.39 44.31 238.86 46.2C237.06 48.36 236.07 49.08 232.29 50.97C232.29 48.54 232.38 47.55 232.47 46.02C231.03 46.2 229.59 46.2 226.8 46.29C227.97 44.13 229.59 41.07 230.58 38.91C231.3 37.47 231.66 36.66 232.29 35.67L226.89 29.46ZM232.29 51.24C235.08 53.94 236.79 56.01 238.86 59.52L236.07 58.89C236.07 59.43 236.07 59.7 236.07 59.88C236.07 61.68 235.53 65.91 235.08 68.25C234.45 71.22 233.64 73.56 232.29 76.8V52.86V51.24ZM260.73 39.99C260.64 42.15 260.19 44.49 259.74 45.21C259.38 45.93 258.57 46.2 256.95 46.2C256.14 46.2 254.88 46.11 253.44 46.02C254.16 43.95 254.34 43.32 255.15 39.99H260.73ZM207.99 46.29C208.89 44.49 209.34 43.77 210.33 41.52H216.18C215.28 43.77 214.92 44.49 214.02 46.29H207.99ZM206.28 78.06L206.37 73.02H209.97V78.06H206.28ZM221.67 78.06H218.25V73.02H221.67V78.06ZM221.67 62.58H218.25V57.63H221.67V62.58ZM209.97 57.63V62.58H206.55V57.63H209.97ZM242.82 82.92C243.72 79.95 243.99 78.87 244.35 77.61H249.3V82.92H242.82ZM337.5 52.77V44.13C349.29 42.96 358.56 41.34 366.57 38.91C367.65 38.64 367.65 38.64 368.73 38.37C368.91 38.28 369.27 38.19 369.72 38.1L360.36 25.23C357.84 26.49 356.13 27.12 353.52 27.84C345.33 30.18 332.91 31.98 325.35 31.98C324.81 31.98 324.18 31.98 323.1 31.89C323.55 35.22 323.64 37.2 323.64 49.53C323.64 65.28 323.19 72.66 321.66 80.22C320.04 88.68 317.61 93.81 312.21 100.29C317.25 103.8 320.04 106.23 323.82 110.55C327.87 105.51 330.12 101.55 332.19 95.7C335.07 87.87 336.69 78.15 337.23 65.73H345.06V98.76C345.06 102.99 344.88 106.95 344.52 110.28H359.55C359.19 107.13 359.01 102.99 359.01 98.76V65.73H359.82C364.41 65.73 367.56 65.91 370.8 66.27V52.23C367.74 52.59 364.68 52.77 359.91 52.77H337.5ZM298.44 40.8H294.57C291.51 40.8 289.62 40.71 287.82 40.35V53.85C289.8 53.49 291.42 53.4 294.3 53.4H297.45C294.75 63.12 291.24 70.23 285.03 77.97C287.73 83.28 288.72 85.8 290.7 92.64C294.3 87.69 295.92 84.81 298.71 78.15C298.53 83.28 298.53 83.28 298.53 88.5V99.21C298.53 103.62 298.35 107.31 297.99 110.37H312.21C311.85 107.31 311.67 103.62 311.67 99.21V80.85C311.67 76.53 311.58 72.93 311.58 70.95C313.38 74.37 314.55 76.17 317.07 79.41C318.51 74.46 319.95 71.04 322.29 66.72C317.25 61.86 314.64 58.44 312.12 53.4H315.72C317.61 53.4 319.23 53.49 321.12 53.76V40.35C319.32 40.62 317.61 40.8 315.63 40.8H311.67V34.59C311.67 30.81 311.85 28.11 312.21 25.59H297.9C298.35 28.29 298.44 30.72 298.44 34.59V40.8Z" fill="black"/>
<path d="M4.356 172.756C2.988 172.756 2.376 172.72 1.368 172.576V178.012C2.304 177.868 2.808 177.832 3.6 177.832H5.112V184.672C3.312 186.004 1.548 187.048 0.54 187.408L2.88 193.24C3.168 193.024 3.312 192.952 3.492 192.808C4.032 192.412 4.032 192.412 4.392 192.16C6.156 190.9 6.228 190.864 7.776 189.532C8.964 190.864 9.936 191.512 11.628 192.088C13.572 192.7 15.768 192.88 22.356 192.88C26.028 192.88 31.068 192.808 34.308 192.664C34.668 190.18 34.884 189.172 35.64 186.796C31.716 187.336 26.28 187.624 20.736 187.624C18.36 187.624 16.632 187.552 15.192 187.372C17.64 185.968 18.648 185.104 19.8 183.628C20.88 182.152 21.312 181.108 21.852 178.66H24.012C23.796 179.308 23.652 179.776 23.544 179.992C23.328 180.568 23.328 180.64 23.184 181.072C24.156 181.036 24.696 181.036 24.804 181.036C25.092 181 25.308 181 25.38 181H27.828C27.684 182.62 27.576 182.728 26.064 182.728C24.948 182.728 23.652 182.62 22.32 182.476C23.04 184.204 23.256 185.032 23.472 186.796C24.624 186.868 25.128 186.868 25.92 186.868C31.932 186.868 32.724 186.04 33.3 178.984C33.372 178.228 33.372 178.084 33.48 177.436L33.912 177.616C34.38 175.456 34.74 174.484 35.64 172.72C32.472 171.964 30.312 171.1 28.584 169.84H31.356C33.12 169.84 33.84 169.876 34.668 169.948V165.448C33.732 165.592 33.12 165.628 31.32 165.628H24.552V164.26C27.252 164.116 27.252 164.116 30.312 163.828C30.888 163.792 31.356 163.72 31.716 163.72C32.076 163.684 32.328 163.648 32.436 163.648C33.192 163.576 33.192 163.576 33.696 163.54L30.528 159.004C28.116 159.796 19.728 160.516 12.672 160.516C12.132 160.516 11.232 160.516 10.116 160.48C10.908 161.992 11.268 162.964 11.592 164.62C13.356 164.62 13.356 164.62 19.404 164.476V165.628H13.716C12.456 165.628 11.844 165.628 11.196 165.556C9.54 163.576 7.704 161.776 5.004 159.58L0.936 163.504C3.6 165.772 5.112 167.32 7.308 170.056L10.404 166.924V169.948C11.124 169.876 11.88 169.84 13.176 169.84H15.516C13.932 171.028 12.204 172 10.44 172.684C9.756 172.756 9.216 172.756 7.812 172.756H4.356ZM10.44 174.664C11.016 175.852 11.232 176.356 11.7 177.76C12.636 177.22 12.924 177.04 13.608 176.644V178.732C14.4 178.696 14.868 178.66 15.372 178.66H16.596C16.344 179.74 16.056 180.28 15.372 181C14.292 182.116 13.104 182.764 10.764 183.484C12.204 184.816 13.104 185.86 14.004 187.192C12.204 186.796 11.124 186.076 10.44 184.816V176.068V174.664ZM16.488 174.556C17.604 173.584 18.144 173.044 19.512 171.604C19.476 171.856 19.44 172.324 19.404 172.972V174.556H16.488ZM24.552 174.556V172.972C24.552 172.756 24.516 172.252 24.48 171.82C24.444 171.748 24.444 171.604 24.444 171.46C26.028 173.116 26.64 173.692 27.828 174.556H24.552ZM29.16 177.256C29.196 177.076 29.268 176.932 29.304 176.86C29.412 176.608 29.484 176.428 29.484 176.428C29.628 175.888 29.628 175.888 29.664 175.744C30.672 176.284 31.752 176.752 32.904 177.22C32.58 177.256 32.184 177.256 31.356 177.256H29.16ZM70.056 163.828C70.056 161.956 70.092 161.092 70.2 160.264C69.048 160.408 68.904 160.408 66.564 160.408H54.36C52.596 160.408 51.768 160.372 50.688 160.264C50.796 161.344 50.832 162.352 50.832 163.828V171.316C50.256 171.316 49.572 171.28 49.14 171.208C49.248 172.54 49.248 172.684 49.248 174.052V183.736C49.248 185.32 49.248 185.86 49.176 186.544C48.708 186.184 48.456 185.932 47.88 185.212V176.752C47.88 173.836 47.88 173.836 47.988 172.684C46.98 172.792 46.908 172.792 45.288 172.792H41.904C40.356 172.792 39.78 172.756 38.88 172.612V178.048C39.816 177.904 40.392 177.868 41.148 177.868H42.588V184.708C40.716 186.22 39.384 187.012 38.232 187.444L40.572 193.24C42.084 192.232 43.776 190.936 45.396 189.496C46.404 190.648 47.484 191.404 48.888 191.944C50.832 192.664 53.028 192.88 58.032 192.88C62.964 192.88 69.12 192.808 72 192.7C72.36 190.108 72.612 189.064 73.332 187.084C69.228 187.552 64.08 187.804 58.356 187.804C53.424 187.804 51.156 187.552 49.608 186.796H54.396C54.288 185.968 54.288 185.5 54.288 183.736V175.564H66.636V181.648C66.636 182.152 66.42 182.26 65.556 182.26C65.52 182.26 65.484 182.26 65.34 182.26V178.624C65.34 177.76 65.34 177.436 65.412 176.68C64.98 176.752 64.98 176.752 63.612 176.752H57.312C56.052 176.752 55.764 176.752 55.44 176.68C55.476 177.868 55.512 178.516 55.512 178.624V183.088C55.44 185.104 55.44 185.104 55.44 185.176C55.404 185.428 55.404 185.428 55.404 185.572C56.7 185.5 57.312 185.464 57.996 185.464H63.72C63.828 185.968 63.828 186.148 63.9 186.796C64.908 186.796 65.7 186.796 66.312 186.796C68.58 186.796 69.912 186.616 70.596 186.148C71.388 185.644 71.82 184.636 71.82 183.268V174.376C71.82 172.936 71.856 172.432 71.964 171.208C71.46 171.28 71.1 171.316 70.056 171.316V163.828ZM57.564 171.316H55.98V164.8H64.836V165.952H60.444C59.76 165.952 57.924 165.916 57.492 165.88C57.564 166.96 57.564 167.068 57.564 168.832V171.316ZM62.352 171.316V169.444H64.836V171.316H62.352ZM59.328 180.244H61.488V181.828H59.328V180.244ZM38.7 163.396C41.58 165.844 43.056 167.428 45.216 170.38L49.464 166.168C47.268 163.504 45.468 161.668 42.768 159.508L38.7 163.396ZM81.864 189.316C81.864 191.08 81.792 192.124 81.648 193.276H87.264V191.44H100.116V193.276H105.768C105.624 192.16 105.552 191.152 105.552 189.352V182.332C105.552 181.36 105.552 180.748 105.588 180.028C107.172 180.46 107.496 180.532 108.9 180.82C109.512 178.264 109.98 176.968 111.024 175.168C106.488 174.52 102.348 173.44 98.784 171.964C100.692 170.344 102.888 168.148 104.256 166.42C105.12 165.34 105.12 165.34 105.732 164.656L102.816 161.452C101.988 161.596 101.124 161.632 99.828 161.632H92.808C93.312 160.984 93.564 160.66 94.176 159.76L88.092 158.968C86.004 162.604 82.44 165.448 77.076 167.86C78.516 169.408 79.272 170.452 80.244 172.324C82.332 171.28 83.808 170.38 85.536 169.048C86.76 170.452 87.48 171.172 88.704 172.18C85.068 173.872 80.964 175.096 76.32 175.816C77.58 177.868 77.976 178.804 78.588 181.216C80.064 180.856 80.424 180.748 81.828 180.316C81.864 181.108 81.864 181.54 81.864 182.332V189.316ZM97.092 166.24C95.616 167.716 95.004 168.256 93.636 169.264C91.908 168.148 91.044 167.464 89.82 166.24H97.092ZM86.796 178.732C89.496 177.76 91.152 177.004 93.672 175.528C96.12 176.86 98.172 177.724 101.304 178.732H86.796ZM87.264 183.484H100.08V186.652H87.264V183.484ZM121.248 185.896C120.744 186.004 120.6 186.04 120.132 186.112V178.12C120.132 176.428 120.168 175.78 120.312 174.808H115.776C115.956 175.816 115.992 176.572 115.992 178.336V186.796C115.164 186.868 114.876 186.904 114.228 186.904L115.344 192.484C115.92 192.304 116.172 192.232 117 192.052C121.968 191.008 125.82 190.036 129.492 188.884V183.88C127.656 184.42 126.936 184.636 126 184.852V180.964C127.152 181 127.692 181 128.448 181.108V176.752C129.132 178.336 129.348 179.128 129.528 180.496L130.644 180.1V189.82C130.644 191.404 130.572 192.34 130.464 193.312H135.9V191.8H141.012V193.276H146.556C146.412 192.016 146.376 190.864 146.376 189.208V179.812L147.312 180.172C147.744 178.156 148.14 176.788 149.04 174.736C146.232 173.908 144.936 173.44 142.704 172.288C144.216 170.596 145.62 168.688 146.7 166.816C147.42 165.556 147.42 165.556 147.924 164.692L145.44 161.524C144.54 161.668 143.892 161.704 142.524 161.704H139.392C139.68 161.164 139.752 161.056 140.328 160.012L134.46 159.04C133.776 161.236 131.58 163.936 129.06 165.772V164.044C129.06 162.316 129.096 161.488 129.204 160.336C128.124 160.444 127.188 160.48 125.46 160.48H119.7C118.08 160.48 117.288 160.444 116.028 160.336C116.136 161.488 116.172 162.568 116.172 164.044V169.228C116.172 170.812 116.136 171.676 116.028 172.936C117.324 172.828 118.044 172.792 119.196 172.792H121.248V185.896ZM128.124 176.176C127.548 176.248 127.116 176.284 126 176.284V172.792H126.432C127.584 172.792 128.232 172.828 129.168 172.9C129.06 172.108 129.06 171.064 129.06 169.228V169.048C129.672 169.948 129.888 170.344 130.428 171.424C131.364 170.776 131.688 170.56 132.48 169.948C133.272 171.028 133.704 171.532 134.568 172.396C132.3 173.836 130.932 174.448 127.728 175.564L128.124 176.176ZM134.136 178.66C135.9 177.796 137.052 177.076 138.708 175.888C140.256 176.932 141.84 177.832 143.604 178.66H134.136ZM140.76 166.348C139.86 167.824 139.392 168.4 138.312 169.48C137.268 168.616 136.548 167.896 135.792 166.852C135.972 166.636 136.044 166.564 136.224 166.348H140.76ZM121.248 165.124H124.236V168.22H121.248V165.124ZM135.9 183.556H141.012V186.904H135.9V183.556ZM167.58 171.244C167.58 169.948 167.652 168.904 167.796 167.536H161.46C161.64 168.94 161.676 169.84 161.676 171.46V188.2C161.676 190.396 162.072 191.404 163.152 192.052C164.124 192.628 165.6 192.808 169.704 192.808C174.708 192.808 176.436 192.448 177.732 191.08C178.812 189.964 179.532 187.48 179.748 184.096C179.82 182.944 179.82 182.944 179.856 182.44C180.468 184.456 180.684 185.428 181.224 187.768L186.912 184.996C184.968 178.228 183.564 174.628 180.936 169.516L175.572 171.82C177.372 175.276 178.272 177.508 179.46 181.072C177.624 180.64 176.436 180.244 174.312 179.236C174.276 183.16 174.06 185.428 173.52 186.4C173.232 187.012 172.368 187.228 170.388 187.228C168.12 187.228 167.58 187.084 167.58 186.4V171.244ZM157.14 188.38C159.192 183.772 159.948 180.028 160.56 171.604L155.232 170.272C154.692 177.328 153.828 181.18 151.776 185.356L157.14 188.38ZM177.336 164.188C173.448 162.136 170.46 160.984 164.448 159.184L161.316 163.972C167.688 166.06 170.784 167.428 174.024 169.552L177.336 164.188ZM209.916 187.444H204.48C202.5 187.444 201.672 187.408 200.628 187.264V192.556C202.068 192.376 203.076 192.34 205.236 192.34H219.384C221.58 192.34 222.624 192.376 223.92 192.556V187.264C222.912 187.408 221.94 187.444 219.816 187.444H214.992V185.356H218.88C220.86 185.356 221.796 185.392 222.912 185.536V180.388C221.904 180.532 220.968 180.568 218.808 180.568H214.992V178.768H219.132C221.256 178.768 221.58 178.768 222.66 178.84C222.516 177.724 222.48 176.572 222.48 173.8V165.664C222.48 163.252 222.552 161.452 222.66 160.336C221.796 160.48 220.752 160.516 217.908 160.516H207.612C205.2 160.516 204.048 160.48 202.536 160.336C202.68 161.596 202.716 162.784 202.716 165.412V174.052C202.716 176.536 202.68 177.868 202.572 178.876C203.544 178.804 204.3 178.768 206.712 178.768H209.916V180.568H206.568C204.192 180.568 203.472 180.532 202.608 180.424V185.5C203.616 185.392 204.264 185.356 206.604 185.356H209.916V187.444ZM209.916 165.448V167.572H207.72V165.448H209.916ZM214.992 165.448H217.188V167.572H214.992V165.448ZM209.916 171.784V174.016H207.72V171.784H209.916ZM214.992 171.784H217.188V174.016H214.992V171.784ZM193.68 165.88V171.496H193.356C192.204 171.496 191.556 171.46 190.728 171.352V176.428C191.556 176.32 192.204 176.284 193.248 176.284H193.68V183.34C191.484 184.132 191.016 184.276 189.828 184.528L191.088 190.18C191.592 189.928 191.628 189.928 191.88 189.82C196.848 187.768 198.972 186.832 201.852 185.392L201.816 180.028C200.52 180.676 200.16 180.82 198.972 181.324V176.284H199.188C199.98 176.284 200.556 176.32 201.384 176.392V171.352C200.592 171.46 200.052 171.496 199.188 171.496H198.972V165.88H199.44C200.268 165.88 201.06 165.916 201.924 166.024V160.732C200.988 160.84 199.98 160.912 198.504 160.912H193.752C192.348 160.912 191.232 160.84 190.296 160.732V166.024C191.34 165.916 191.952 165.88 192.816 165.88H193.68ZM238.968 168.4C238.608 168.436 238.176 168.472 237.132 168.472H235.152L235.116 167.572H237.132C238.14 167.572 238.536 167.572 238.968 167.644V164.8C238.644 164.872 238.176 164.908 237.132 164.908H234.972L234.936 164.152C236.448 163.936 238.536 163.504 239.364 163.18C239.616 163.108 239.616 163.108 239.796 163.072L237.708 159.364C236.196 160.228 233.244 160.948 230.076 161.2C230.148 161.848 230.22 162.64 230.292 163.756L230.652 172.108C229.752 172.072 229.212 172.072 228.528 172C228.636 172.9 228.672 173.692 228.672 174.952V176.356C228.672 177.616 228.636 178.336 228.528 179.308H233.568V175.888H255.924V179.308H261.036C260.928 178.372 260.892 177.724 260.892 176.392V174.952C260.892 173.656 260.928 172.9 261.036 172C260.388 172.072 260.064 172.072 258.984 172.108L259.488 162.82C259.524 162.028 259.632 161.02 259.704 160.228C259.092 160.336 258.336 160.372 257.256 160.372H253.116C251.82 160.372 251.064 160.336 250.524 160.228V164.008C251.172 163.972 251.784 163.936 252.54 163.936H254.808L254.736 164.872H252.36C251.244 164.872 250.884 164.872 250.524 164.8V167.644C250.92 167.572 251.388 167.536 252.36 167.536H254.592L254.556 168.472H252.36C251.28 168.472 250.848 168.436 250.524 168.4V171.208C250.884 171.172 251.316 171.136 252.36 171.136H254.412L254.34 172.108H247.536L250.056 169.912C249.156 169.3 248.796 169.048 248.184 168.616C248.796 168.22 249.156 168.004 250.164 167.248L248.076 165.736L250.02 164.008C249.048 163.324 248.724 163.108 248.004 162.64C248.616 162.136 249.012 161.812 250.092 160.876L247.068 159.04C246.168 160.012 245.844 160.3 245.052 160.876C244.008 160.3 243.54 160.084 242.1 159.436L239.688 161.452C240.948 161.992 241.38 162.208 242.208 162.64C241.092 163.216 240.552 163.432 238.896 164.008C239.832 164.764 240.264 165.196 241.02 166.132L239.58 167.284C240.768 167.788 241.128 167.968 241.992 168.4C241.056 168.796 240.624 168.904 238.968 169.336V168.4ZM245.124 166.816C244.224 166.312 243.9 166.168 243.108 165.772C243.936 165.34 244.26 165.16 245.232 164.548C245.844 164.98 246.06 165.16 246.672 165.7C246.024 166.24 245.772 166.42 245.124 166.816ZM241.272 172.108C243.072 171.424 243.576 171.208 245.196 170.38C245.952 170.956 246.24 171.172 247.284 172.108H241.272ZM235.332 172.108L235.296 171.136H237.132C238.176 171.136 238.536 171.136 238.968 171.208V169.624C239.796 170.452 240.228 170.992 240.948 172.108H235.332ZM247.716 187.156H255.96C258.444 187.156 259.776 187.228 261.144 187.372V182.728C259.848 182.872 258.552 182.944 255.996 182.944H248.868C250.236 182.188 251.784 181.216 252.504 180.64C253.548 179.776 253.764 179.596 254.34 179.272L252.288 176.752C251.568 176.896 250.74 176.932 249.588 176.932H238.356C236.664 176.932 236.124 176.896 235.08 176.788V180.856C236.124 180.748 237.024 180.712 238.932 180.712H246.132C245.124 181.324 245.088 181.36 244.044 181.792H242.352C242.388 182.26 242.424 182.584 242.424 182.944H233.496C230.976 182.944 229.644 182.872 228.384 182.728V187.372C229.716 187.228 231.048 187.156 233.532 187.156H242.424V188.128C242.424 188.848 242.172 188.956 240.66 188.956C239.688 188.956 238.536 188.884 237.024 188.704C237.672 190.324 237.924 191.44 238.14 193.24C240.192 193.276 240.192 193.276 240.516 193.276C243.36 193.276 245.16 193.024 246.132 192.448C247.176 191.836 247.716 190.612 247.716 188.92V187.156ZM293.616 173.08C295.812 173.08 297.036 173.116 298.656 173.296V167.248C297.216 167.392 295.848 167.464 293.58 167.464H285.372C285.372 166.816 285.372 166.708 285.372 166.24C285.444 161.56 285.444 161.56 285.66 160.156H279.072C279.252 161.236 279.324 162.136 279.324 164.008C279.324 165.196 279.324 166.024 279.288 167.464H271.548C269.208 167.464 267.84 167.392 266.508 167.248V173.296C267.948 173.116 268.884 173.08 271.584 173.08H278.82C278.316 176.572 277.092 179.236 274.86 181.684C272.448 184.384 269.676 186.184 265.392 187.84C266.94 189.712 267.84 191.116 268.884 193.24C270.72 192.412 271.548 191.98 272.628 191.332C274.824 190 276.912 188.236 278.748 186.184C280.512 184.204 281.808 182.152 282.852 179.668C284.364 182.944 286.056 185.32 288.504 187.696C290.844 189.928 293.148 191.548 296.532 193.24C297.648 190.792 298.548 189.388 300.132 187.444C296.136 185.86 293.292 184.06 290.808 181.576C288.396 179.128 286.524 176.104 285.552 173.08H293.616ZM306.54 163.684C305.568 163.684 304.812 163.648 304.236 163.576C304.344 164.512 304.416 165.916 304.416 166.852V188.884C304.416 190.288 304.344 191.548 304.2 192.952H309.708V190.936H312.48V192.088H317.736C317.664 191.368 317.628 190.72 317.628 189.28V180.388C317.628 179.236 317.664 178.624 317.736 177.76C317.052 177.832 316.44 177.868 315.324 177.868H309.672V175.96H315.396C316.116 175.96 316.62 175.96 317.484 176.032C317.412 175.312 317.412 174.88 317.412 173.26V165.736C317.412 165.016 317.448 164.404 317.484 163.576C316.872 163.648 316.188 163.684 315.18 163.684H313.524C314.244 162.172 314.712 161.02 315.18 159.616L309.6 159.004C309.42 160.444 309.024 161.668 308.088 163.684H306.54ZM309.672 168.472H312.336V171.172H309.672V168.472ZM309.672 182.8H312.48V186.004H309.672V182.8ZM324.972 165.556V168.076H321.588C319.968 168.076 319.356 168.04 318.672 167.968C318.744 168.76 318.78 169.48 318.78 171.208V186.22C318.78 189.064 318.78 189.532 318.636 190.504H323.64C323.568 189.748 323.532 188.92 323.532 186.976V172.864H324.972V189.244C324.972 190.756 324.9 192.016 324.756 193.24H330.228C330.084 191.98 330.012 190.792 330.012 189.244V185.284C330.696 186.436 330.912 187.588 331.056 190.18C331.488 190.18 331.848 190.18 332.064 190.18C333.972 190.18 334.872 189.928 335.556 189.244C336.168 188.632 336.456 187.624 336.456 186.256V170.92C336.456 169.156 336.492 168.58 336.564 167.932C335.808 168.04 335.088 168.076 333.612 168.076H330.012V165.556H333.396C334.98 165.556 336.096 165.592 337.32 165.736V160.264C336.204 160.408 335.052 160.48 333.18 160.48H322.452C320.508 160.48 319.356 160.408 318.168 160.264V165.736C319.428 165.592 320.508 165.556 322.128 165.556H324.972ZM330.012 172.864H331.704V184.708C331.704 185.104 331.56 185.212 331.092 185.212C330.948 185.212 330.516 185.176 330.012 185.14V172.864ZM15.156 214.984C14.652 215.092 14.292 215.128 13.428 215.128H10.368C10.62 214.516 10.692 214.336 10.908 213.904L5.364 213.04C5.148 214.336 4.572 216.136 3.708 217.9C2.844 219.736 2.016 220.96 0.576 222.508C1.584 223.228 1.872 223.48 2.52 224.056C2.556 224.956 2.556 225.424 2.556 226.9C2.556 236.836 2.16 239.968 0.612 242.956C2.16 244.144 2.988 245.044 4.464 247.096C5.796 244.396 6.264 242.596 6.66 238.78H13.068V241.444C13.068 242.056 12.78 242.164 11.376 242.164C10.8 242.164 9.9 242.092 8.676 241.984C9.36 243.712 9.684 244.972 9.864 246.952C10.512 246.952 11.016 246.952 11.34 246.952C14.112 246.952 15.192 246.772 16.02 246.196C16.956 245.548 17.316 244.648 17.316 242.92V234.424C18.792 234.964 19.908 235.504 21.348 236.368C19.62 236.368 19.224 236.332 18.072 236.224V241.516C19.116 241.372 19.8 241.336 21.528 241.336H24.12V243.388C24.12 245.224 24.084 246.052 23.904 247.276H29.7C29.52 246.088 29.484 245.26 29.484 243.388V241.336H31.356C33.192 241.336 33.804 241.372 34.848 241.516V236.224C33.768 236.332 33.048 236.368 31.356 236.368H29.484V234.244H31.248C32.544 234.244 33.444 234.28 34.236 234.388V229.204C33.516 229.348 32.76 229.384 31.248 229.384H29.484C29.484 228.376 29.484 227.836 29.52 226.972H24.156C24.3 227.656 24.336 228.268 24.336 229.384H23.148C23.22 228.808 23.292 228.268 23.364 227.764L21.348 227.332C23.148 226.072 24.192 224.848 25.272 222.796C25.632 224.164 25.74 224.848 25.92 226.216C27.216 226.288 27.72 226.288 28.224 226.288C30.348 226.288 31.392 226.072 32.148 225.532C33.192 224.776 33.696 223.192 33.948 219.808C34.272 215.02 34.272 215.02 34.38 214.192C33.444 214.3 32.652 214.336 31.284 214.336H21.744C19.98 214.336 19.008 214.3 17.784 214.156V219.34C18.576 219.232 19.44 219.196 20.808 219.196H21.204C20.844 220.42 20.556 220.924 19.944 221.68C19.224 222.544 18.828 222.832 17.316 223.588C17.316 222.616 17.352 222.22 17.388 221.608C16.812 221.68 16.236 221.68 15.12 221.716C15.588 220.852 16.236 219.628 16.632 218.764C16.92 218.188 17.064 217.864 17.316 217.468L15.156 214.984ZM17.316 223.696C18.432 224.776 19.116 225.604 19.944 227.008L18.828 226.756C18.828 226.972 18.828 227.08 18.828 227.152C18.828 227.872 18.612 229.564 18.432 230.5C18.18 231.688 17.856 232.624 17.316 233.92V224.344V223.696ZM28.692 219.196C28.656 220.06 28.476 220.996 28.296 221.284C28.152 221.572 27.828 221.68 27.18 221.68C26.856 221.68 26.352 221.644 25.776 221.608C26.064 220.78 26.136 220.528 26.46 219.196H28.692ZM7.596 221.716C7.956 220.996 8.136 220.708 8.532 219.808H10.872C10.512 220.708 10.368 220.996 10.008 221.716H7.596ZM6.912 234.424L6.948 232.408H8.388V234.424H6.912ZM13.068 234.424H11.7V232.408H13.068V234.424ZM13.068 228.232H11.7V226.252H13.068V228.232ZM8.388 226.252V228.232H7.02V226.252H8.388ZM21.528 236.368C21.888 235.18 21.996 234.748 22.14 234.244H24.12V236.368H21.528ZM59.4 224.308V220.852C64.116 220.384 67.824 219.736 71.028 218.764C71.46 218.656 71.46 218.656 71.892 218.548C71.964 218.512 72.108 218.476 72.288 218.44L68.544 213.292C67.536 213.796 66.852 214.048 65.808 214.336C62.532 215.272 57.564 215.992 54.54 215.992C54.324 215.992 54.072 215.992 53.64 215.956C53.82 217.288 53.856 218.08 53.856 223.012C53.856 229.312 53.676 232.264 53.064 235.288C52.416 238.672 51.444 240.724 49.284 243.316C51.3 244.72 52.416 245.692 53.928 247.42C55.548 245.404 56.448 243.82 57.276 241.48C58.428 238.348 59.076 234.46 59.292 229.492H62.424V242.704C62.424 244.396 62.352 245.98 62.208 247.312H68.22C68.076 246.052 68.004 244.396 68.004 242.704V229.492H68.328C70.164 229.492 71.424 229.564 72.72 229.708V224.092C71.496 224.236 70.272 224.308 68.364 224.308H59.4ZM43.776 219.52H42.228C41.004 219.52 40.248 219.484 39.528 219.34V224.74C40.32 224.596 40.968 224.56 42.12 224.56H43.38C42.3 228.448 40.896 231.292 38.412 234.388C39.492 236.512 39.888 237.52 40.68 240.256C42.12 238.276 42.768 237.124 43.884 234.46C43.812 236.512 43.812 236.512 43.812 238.6V242.884C43.812 244.648 43.74 246.124 43.596 247.348H49.284C49.14 246.124 49.068 244.648 49.068 242.884V235.54C49.068 233.812 49.032 232.372 49.032 231.58C49.752 232.948 50.22 233.668 51.228 234.964C51.804 232.984 52.38 231.616 53.316 229.888C51.3 227.944 50.256 226.576 49.248 224.56H50.688C51.444 224.56 52.092 224.596 52.848 224.704V219.34C52.128 219.448 51.444 219.52 50.652 219.52H49.068V217.036C49.068 215.524 49.14 214.444 49.284 213.436H43.56C43.74 214.516 43.776 215.488 43.776 217.036V219.52ZM92.34 220.06C90.072 223.84 87.696 226.468 83.664 229.636C81.18 231.616 79.488 232.66 76.32 234.244C77.832 236.008 78.804 237.556 79.524 239.392C82.044 237.952 83.772 236.8 85.572 235.396C87.84 233.668 89.46 232.156 90.612 230.68C90.612 231.076 90.612 231.184 90.612 231.4C90.612 231.796 90.612 232.12 90.612 232.408V242.056C90.612 244.036 90.54 245.692 90.36 247.24H96.588C96.408 245.692 96.336 244.072 96.336 242.056V230.248C99.612 233.884 102.996 236.584 107.856 239.464C108.864 237.304 109.8 235.756 111.096 234.028C106.56 232.048 102.204 228.736 98.604 224.56L96.336 227.296V224.236C97.848 222.112 98.208 221.5 98.964 220.06H104.724C106.452 220.06 108.324 220.132 110.196 220.276V214.552C108.9 214.732 106.956 214.804 104.544 214.804H82.692C80.604 214.804 78.768 214.732 77.004 214.552V220.276C78.876 220.132 81.108 220.06 82.872 220.06H92.34ZM147.816 226.504C146.196 226.72 144.396 226.792 141.624 226.792H121.212C118.584 226.792 116.892 226.72 114.984 226.504V232.768C117.144 232.552 119.016 232.48 121.212 232.48H141.624C143.82 232.48 145.728 232.552 147.816 232.768V226.504ZM176.832 241.84C176.832 241.66 176.832 241.3 176.724 240.076C178.524 242.992 180.396 244.648 184.14 246.7C185.184 244.216 185.616 243.388 186.696 241.984C183.996 241.012 182.196 240.004 180.504 238.456C181.836 237.664 182.484 237.232 184.32 235.864C185.508 234.964 185.508 234.964 185.796 234.784L182.124 231.616C181.188 232.804 179.964 233.812 177.912 235.108C177.3 234.028 177.048 233.164 176.832 231.724C177.84 231.94 178.38 232.048 179.82 232.408L181.296 229.276C177.984 228.628 174.924 228.196 169.524 227.692H181.656C183.204 227.692 184.608 227.764 185.832 227.872V223.948C184.572 224.056 183.276 224.128 181.656 224.128H176.76V223.192H180.288C182.52 223.192 183.024 223.192 184.248 223.336V220.204C183.132 220.312 182.52 220.348 180.288 220.348H176.76V219.448H181.476C183.24 219.448 184.14 219.484 185.256 219.592V215.884C184.032 216.028 183.348 216.064 181.512 216.064C182.088 215.272 182.304 214.912 182.808 214.012L177.48 212.932C177.192 213.94 176.76 214.912 176.112 216.064H173.304C172.62 214.732 172.152 213.904 171.54 212.968L166.536 214.084C167.076 214.804 167.256 215.056 167.832 216.064C166.032 216.064 165.492 216.028 164.448 215.884V219.592C165.492 219.484 166.428 219.448 168.192 219.448H171.72V220.348H168.948C166.716 220.348 166.428 220.348 165.384 220.24V223.3C166.392 223.228 166.968 223.192 169.02 223.192H171.72V224.128H167.76C166.32 224.128 165.132 224.092 164.088 223.984V219.196C163.44 219.304 163.08 219.34 162.324 219.34H161.568V217.108C161.568 215.56 161.64 214.336 161.784 213.364H156.168C156.348 214.444 156.384 215.452 156.384 217.108V219.34H154.944C153.828 219.34 153.324 219.304 152.64 219.16V224.524C153.288 224.38 153.9 224.344 154.944 224.344H156.06C155.124 228.376 153.828 231.328 151.704 234.208C152.712 236.08 153.36 237.736 153.972 240.04C155.016 238.456 155.844 236.62 156.528 234.424C156.492 235.18 156.456 236.368 156.42 237.952V242.668C156.42 244.396 156.348 246.088 156.204 247.312H161.784C161.676 246.268 161.604 245.368 161.568 243.604C162.54 244.756 163.044 245.62 163.656 247.06C165.708 245.98 167.076 244.972 168.552 243.532C168.984 244.756 169.2 245.62 169.452 247.132C170.604 247.204 171.072 247.204 171.612 247.204C173.628 247.204 174.744 246.988 175.572 246.448C176.544 245.836 176.868 245.044 176.868 243.424L176.832 241.84ZM172.26 241.984C172.26 242.704 172.044 242.884 171 242.884C170.532 242.884 170.136 242.848 169.308 242.74C170.28 241.66 171.072 240.616 171.756 239.392C172.116 238.852 172.116 238.852 172.26 238.564V241.984ZM172.26 238.06L170.172 235.684C169.596 235.792 168.948 235.828 167.94 235.828H166.032C164.628 235.828 163.944 235.792 163.08 235.684V239.464C164.124 239.356 164.556 239.32 165.312 239.32H166.86C165.204 240.94 163.8 241.84 161.568 242.704V235.036C161.568 234.028 161.532 232.516 161.46 231.4C162 232.588 162.468 233.416 163.188 234.46C164.052 231.94 164.124 231.832 165.204 229.708C163.44 228.016 162.36 226.36 161.712 224.344H162.288C162.864 224.344 163.296 224.38 163.8 224.452V227.872C164.844 227.728 165.636 227.692 167.292 227.692H168.948L167.256 230.428C171.072 230.752 172.872 230.968 175.716 231.508H168.12C166.86 231.508 166.032 231.472 165.132 231.364V235.072C165.888 234.964 166.824 234.928 167.976 234.928H172.26V238.06ZM216.324 235.864C215.028 232.444 213.84 229.96 212.076 226.9L207.504 228.88C208.908 227.368 210.06 225.676 211.32 223.372H217.656C217.584 233.668 217.332 238.564 216.684 240.508C216.36 241.552 215.784 241.84 214.092 241.84C213.048 241.84 212.004 241.768 209.916 241.516C210.78 243.64 211.068 244.9 211.32 247.132C212.508 247.168 213.264 247.168 213.984 247.168C216.144 247.168 218.196 246.88 219.24 246.412C220.716 245.764 221.4 244.684 221.976 242.02C222.408 239.968 222.804 235.612 222.912 231.58C223.128 222.544 223.164 221.68 223.164 220.276C223.2 219.304 223.2 218.908 223.344 217.828C222.624 217.936 221.832 217.972 220.32 217.972H213.696C213.984 217.18 214.092 216.892 214.38 215.92C214.596 215.2 214.848 214.48 215.028 214.156L209.34 213.328C209.232 214.12 209.052 214.912 208.728 215.848C207.936 218.332 206.424 221.284 204.984 223.264V221.284C204.984 220.132 204.984 219.34 204.984 219.34C205.056 218.548 205.056 218.548 205.092 218.224C204.264 218.296 203.292 218.332 202.068 218.332H200.448C201.276 216.496 201.276 216.496 202.284 213.976L196.56 213.292C196.164 215.236 195.804 216.46 195.048 218.332H194.256C192.384 218.332 192.132 218.332 191.16 218.224C191.268 219.268 191.304 219.916 191.304 222.148V241.3C191.304 243.532 191.232 245.08 191.088 246.232H196.524V243.028H199.872V245.044H205.092C205.02 243.928 204.984 242.848 204.984 241.66V227.872C205.632 228.484 205.884 228.772 206.712 229.708C207 229.42 207.072 229.312 207.288 229.096C208.908 231.796 210.024 234.424 211.068 238.168L216.324 235.864ZM196.488 223.336H199.908V228.088H196.488V223.336ZM196.488 232.876H199.908V238.132H196.488V232.876ZM235.512 217.612C233.316 217.612 232.308 217.576 230.976 217.468C231.12 218.728 231.156 219.664 231.156 221.824V242.992C231.156 244.828 231.084 246.016 230.94 247.168H236.7V245.62H253.08V247.168H258.948C258.768 245.872 258.732 244.864 258.732 242.956V221.824C258.732 219.592 258.768 218.656 258.912 217.468C257.58 217.576 256.572 217.612 254.376 217.612H246.24C246.492 217.072 246.636 216.784 246.78 216.424C247.68 214.192 247.68 214.192 247.932 213.58L241.524 213.148C241.308 214.444 240.804 216.064 240.12 217.612H235.512ZM236.736 222.652H253.152V225.316H236.736V222.652ZM236.736 230.284H253.152V232.876H236.736V230.284ZM236.736 237.88H253.152V240.544H236.736V237.88ZM272.988 214.588C271.044 214.588 269.316 214.516 267.876 214.336V220.06C269.208 219.88 271.08 219.808 273.024 219.808H290.16V225.604H272.448C270.936 225.604 269.82 225.568 268.38 225.424C268.488 226.576 268.524 227.62 268.524 229.312V241.552C268.524 243.82 269.1 244.9 270.72 245.692C272.124 246.376 275.04 246.628 282.024 246.628C293.688 246.628 296.496 246.088 298.008 243.532C298.764 242.236 299.016 241.084 299.412 236.62C297.36 236.26 296.28 235.9 293.976 234.892C293.904 240.04 293.616 240.652 291.168 241.084C290.016 241.3 286.308 241.444 282.024 241.444C278.892 241.444 276.228 241.3 275.256 241.048C274.464 240.868 274.248 240.58 274.248 239.788V230.716H290.16V232.84H296.028C295.92 231.544 295.884 230.356 295.884 228.88V218.656C295.884 217.288 295.956 215.632 296.064 214.372C294.804 214.516 293.544 214.588 291.996 214.588H272.988Z" fill="#2B2B2B"/>
</svg>
